<?xml version="1.0" encoding="UTF-8" standalone="no"?>
<!-- Created with Inkscape (http://www.inkscape.org/) -->

<svg
   width="195.5638mm"
   height="25.061346mm"
   viewBox="0 0 195.5638 25.061346"
   version="1.1"
   id="svg8"
   inkscape:version="1.3.2 (1:1.3.2+202311252150+091e20ef0f)"
   sodipodi:docname="logo_bb.svg"
   xmlns:inkscape="http://www.inkscape.org/namespaces/inkscape"
   xmlns:sodipodi="http://sodipodi.sourceforge.net/DTD/sodipodi-0.dtd"
   xmlns="http://www.w3.org/2000/svg"
   xmlns:svg="http://www.w3.org/2000/svg"
   xmlns:rdf="http://www.w3.org/1999/02/22-rdf-syntax-ns#"
   xmlns:cc="http://creativecommons.org/ns#"
   xmlns:dc="http://purl.org/dc/elements/1.1/">
  <defs
     id="defs2" />
  <sodipodi:namedview
     id="base"
     pagecolor="#d2d2d2"
     bordercolor="#666666"
     borderopacity="1.0"
     inkscape:pageopacity="0"
     inkscape:pageshadow="2"
     inkscape:zoom="0.39375"
     inkscape:cx="-81.051971"
     inkscape:cy="558.86667"
     inkscape:document-units="mm"
     inkscape:current-layer="layer1"
     showgrid="false"
     inkscape:window-width="1366"
     inkscape:window-height="741"
     inkscape:window-x="0"
     inkscape:window-y="0"
     inkscape:window-maximized="1"
     inkscape:showpageshadow="2"
     inkscape:pagecheckerboard="0"
     inkscape:deskcolor="#d1d1d1" />
  <metadata
     id="metadata5">
    <rdf:RDF>
      <cc:Work
         rdf:about="">
        <dc:format>image/svg+xml</dc:format>
        <dc:type
           rdf:resource="http://purl.org/dc/dcmitype/StillImage" />
        <dc:title />
      </cc:Work>
    </rdf:RDF>
  </metadata>
  <g
     inkscape:label="Capa 1"
     inkscape:groupmode="layer"
     id="layer1"
     transform="translate(5.0271,-29.104172)">
    <g
       id="g123"
       inkscape:export-filename="./render/logo_bb.png"
       inkscape:export-xdpi="56.569508"
       inkscape:export-ydpi="56.569508"
       transform="translate(-961.99666,233.85993)">
      <path
         style="fill:#ffffff;fill-opacity:1;stroke-width:1"
         d="m 986.86966,-179.94541 c -1.4955,-0.0253 -1.5035,-0.0268 -1.6974,-0.33452 -0.072,-0.11417 -0.087,-0.19823 -0.07,-0.38225 0.012,-0.12976 0.2812,-1.00896 0.5982,-1.95381 0.3168,-0.94484 0.5762,-1.76044 0.5762,-1.81245 0,-0.0536 -0.055,-0.12854 -0.126,-0.17303 -0.3515,-0.21894 -1.022,-0.65888 -2.1293,-1.39703 l -1.2248,-0.81645 h -1.8665 c -1.0265,0 -1.8903,0.0159 -1.9194,0.0343 -0.037,0.0235 -0.051,0.24886 -0.046,0.74349 l 0.01,0.70978 -0.2473,0.45797 c -0.1359,0.25188 -0.3265,0.58887 -0.4236,0.74888 -0.097,0.16 -0.1764,0.29719 -0.1764,0.30487 0,0.0279 -0.6443,1.13479 -0.7331,1.25951 -0.05,0.0705 -0.091,0.13742 -0.091,0.14882 0,0.0114 -0.099,0.19367 -0.2208,0.4051 -0.1215,0.21142 -0.3107,0.54926 -0.4202,0.75077 -0.3822,0.70275 -0.4362,0.79571 -0.5838,1.00503 -0.082,0.11588 -0.2017,0.23083 -0.2664,0.25545 -0.07,0.0266 -0.9057,0.0447 -2.0575,0.0447 h -1.9399 l -0.1426,-0.11995 c -0.3064,-0.25784 -0.3464,-0.55517 -0.1351,-1.00208 0.1174,-0.24834 0.7297,-1.35317 1.2746,-2.29993 0.09,-0.15669 0.2856,-0.49673 0.4344,-0.75564 0.1487,-0.25893 0.3271,-0.56352 0.3964,-0.67686 0.069,-0.11336 0.2007,-0.35402 0.2921,-0.53483 l 0.1659,-0.32874 -0.013,-0.56429 -0.013,-0.56431 -0.9585,-0.0124 c -0.7362,-0.01 -0.9671,0.002 -0.9954,0.0458 -0.02,0.032 -0.037,0.37521 -0.037,0.76267 v 0.70447 l -0.227,0.42372 c -0.1249,0.23305 -0.2927,0.5343 -0.3728,0.66945 -0.223,0.37597 -0.3162,0.5401 -0.4905,0.86396 -0.088,0.16374 -0.2499,0.44675 -0.3594,0.62893 -0.1094,0.18219 -0.199,0.33896 -0.199,0.34838 0,0.009 -0.2216,0.40648 -0.4923,0.88237 -0.2708,0.47588 -0.5216,0.92192 -0.5573,0.99118 -0.036,0.0693 -0.082,0.12595 -0.1031,0.12595 -0.021,0 -0.038,0.0288 -0.038,0.064 0,0.0352 -0.073,0.12792 -0.1619,0.20608 l -0.1619,0.14214 h -1.9471 c -2.1284,0 -2.0897,0.004 -2.3224,-0.27204 -0.2629,-0.31231 -0.2047,-0.52364 0.4546,-1.65143 0.2283,-0.39042 0.6788,-1.18385 1.0011,-1.76318 0.3223,-0.57932 0.6212,-1.10484 0.6643,-1.16781 0.043,-0.063 0.1672,-0.27892 0.276,-0.47989 l 0.1978,-0.36538 -0.01,-0.54894 c -0.01,-0.37062 -0.027,-0.5604 -0.065,-0.5842 -0.031,-0.0193 -0.2559,-0.0355 -0.5009,-0.0359 h -0.4454 l -1.0119,1.00548 c -0.8758,0.87027 -1.0376,1.01149 -1.2033,1.0503 -0.2037,0.0477 -2.7777,0.0284 -3.1009,-0.0234 -0.2708,-0.0434 -0.436,-0.21878 -0.4927,-0.52319 -0.027,-0.14903 -0.048,-1.31841 -0.051,-2.89802 0,-1.4565 -0.016,-2.66726 -0.03,-2.69058 -0.014,-0.0234 -0.2225,-0.0424 -0.4624,-0.0424 -0.5145,0 -1.0407,-0.11805 -1.4819,-0.3324 -0.5672,-0.27564 -1.0729,-0.9147 -1.3063,-1.65069 -0.1122,-0.35367 -0.1133,-0.37458 -0.1133,-2.07071 v -1.71342 l 0.1481,-0.1687 c 0.1855,-0.21125 0.3767,-0.29261 0.6862,-0.29192 0.5957,0.002 1.3315,0.35932 1.7926,0.87205 0.1185,0.1319 0.2957,0.41319 0.3984,0.63273 0.1016,0.21739 0.2017,0.42616 0.2222,0.46396 0.048,0.088 0.3837,0.0956 0.5951,0.0135 0.2084,-0.081 0.4705,-0.29693 2.0686,-1.7043 0.2122,-0.18688 0.4992,-0.4375 0.6377,-0.55695 0.1386,-0.11944 0.4992,-0.43111 0.8015,-0.69259 0.3023,-0.26146 0.6135,-0.52605 0.6916,-0.58797 0.3477,-0.27556 2.2136,-1.86511 2.3081,-1.96629 0.013,-0.0135 0.1568,-0.13761 0.3206,-0.27582 0.1637,-0.13823 0.308,-0.26215 0.3206,-0.27538 0.013,-0.0132 0.1774,-0.15762 0.3664,-0.32086 0.1889,-0.16325 0.3537,-0.30807 0.3664,-0.32181 0.11,-0.12019 1.2056,-1.00005 1.41,-1.13238 0.2825,-0.18285 0.2885,-0.18638 0.7654,-0.45279 2.0268,-1.13239 4.3829,-1.53748 6.5946,-1.13385 1.7628,0.32167 3.0335,0.90105 4.7172,2.15075 1.9362,1.43725 2.5961,1.68586 4.9232,1.85516 0.816,0.0594 1.861,0.25488 2.3185,0.43376 0.3562,0.13933 1.1227,0.50867 1.4471,0.69733 0.7311,0.42521 1.5315,1.11654 2.0811,1.79752 0.2824,0.34986 0.6564,0.90054 0.6564,0.96647 0,0.13291 0.4876,0.69889 0.8701,1.01002 0.1134,0.0922 0.2967,0.2425 0.4075,0.33406 0.2815,0.23264 0.538,0.37164 0.8101,0.43891 0.2173,0.0537 0.25,0.0498 0.4838,-0.0572 0.5106,-0.23374 0.6959,-0.78521 0.413,-1.22932 -0.072,-0.11199 -0.6844,-0.76012 -1.3624,-1.44027 -0.8431,-0.84556 -1.2644,-1.30178 -1.3327,-1.44261 -0.2905,-0.59927 -0.2961,-0.6178 -0.3216,-1.05317 -0.032,-0.54266 0.029,-0.84936 0.2631,-1.32088 0.1982,-0.40025 0.3325,-0.56205 0.6392,-0.77035 0.5658,-0.3842 0.764,-0.42449 2.0838,-0.42378 0.8983,0 1.0766,0.0122 1.212,0.0786 0.4268,0.20969 0.5226,0.82316 0.1774,1.137 -0.2317,0.21063 -0.2923,0.22133 -1.3894,0.24568 -1.035,0.023 -1.056,0.0254 -1.2067,0.13787 -0.3875,0.28937 -0.5067,0.84284 -0.2546,1.18148 0.069,0.0932 0.6575,0.70535 1.3068,1.36025 1.2855,1.29654 1.426,1.45491 1.5645,1.76294 0.305,0.67823 0.2754,1.37455 -0.088,2.06578 -0.3675,0.69991 -0.9285,1.10401 -1.6429,1.18357 -0.2015,0.0224 -0.4281,0.0313 -0.5038,0.0198 -0.4162,-0.0637 -0.7053,-0.12445 -0.8521,-0.17898 l -0.1653,-0.0614 0.019,1.51977 c 0.011,0.83588 0.027,1.56098 0.037,1.61137 0.011,0.0504 0.4649,0.53468 1.01,1.07623 1.495,1.48515 2.1594,2.16349 2.2901,2.33813 0.1382,0.18451 0.1343,0.35831 -0.022,1.00504 -0.052,0.2141 -0.1265,0.54384 -0.1655,0.73275 -0.038,0.18891 -0.1119,0.52366 -0.1617,0.74391 -0.05,0.22026 -0.133,0.59121 -0.1847,0.82435 -0.052,0.23315 -0.133,0.58877 -0.1811,0.79027 -0.048,0.20151 -0.1301,0.56217 -0.1824,0.80146 -0.053,0.23928 -0.1136,0.5175 -0.1361,0.61825 -0.022,0.10075 -0.065,0.29653 -0.095,0.43507 -0.129,0.59892 -0.2794,1.02316 -0.4083,1.15212 -0.1487,0.14867 0.081,0.13758 -2.6962,0.13024 -1.5446,-0.004 -1.6176,-0.0158 -1.7849,-0.28642 -0.1625,-0.26301 -0.1209,-0.58137 0.2232,-1.7058 0.054,-0.17631 0.1454,-0.48543 0.2033,-0.68695 0.058,-0.2015 0.1673,-0.56215 0.243,-0.80144 0.076,-0.23929 0.1826,-0.61024 0.2375,-0.82433 0.055,-0.21413 0.1224,-0.46668 0.15,-0.56125 0.027,-0.0946 0.042,-0.17906 0.031,-0.18772 -0.011,-0.009 -0.2662,-0.0786 -0.5684,-0.15555 -0.3022,-0.0769 -0.7239,-0.19222 -0.9372,-0.2563 -0.2477,-0.0745 -0.4062,-0.10111 -0.439,-0.0738 -0.028,0.0235 -0.078,0.16148 -0.1111,0.30663 -0.033,0.14516 -0.1715,0.70701 -0.3083,1.24854 -0.1367,0.54156 -0.2659,1.06708 -0.2869,1.16783 -0.072,0.34115 -0.4971,1.96781 -0.5752,2.19825 -0.1186,0.34945 -0.1942,0.47318 -0.3336,0.5452 -0.1615,0.0836 -0.9065,0.10362 -2.7125,0.073 z m -18.5637,-1.52825 c 0.037,-0.0536 0.1883,-0.31394 0.3336,-0.57842 0.3978,-0.72461 0.4781,-0.86562 0.6851,-1.20297 0.1046,-0.17047 0.1901,-0.32198 0.1901,-0.3367 0,-0.0148 0.1237,-0.2303 0.2748,-0.47906 0.1511,-0.24876 0.2748,-0.46142 0.2748,-0.47258 0,-0.0111 0.099,-0.19192 0.2192,-0.40173 0.399,-0.69401 0.3983,-0.69209 0.3876,-1.24582 -0.01,-0.29145 -0.031,-0.52415 -0.062,-0.56102 -0.073,-0.0877 -1.915,-0.0932 -1.926,-0.006 -0.01,0.0314 -0.01,0.3561 -0.012,0.7213 -0.01,0.73327 -0.01,0.74595 -0.4638,1.55712 -0.092,0.1637 -0.251,0.45223 -0.3534,0.64114 -0.1595,0.29404 -0.4825,0.85664 -0.9074,1.58 -0.059,0.10075 -0.1187,0.19349 -0.1325,0.20608 -0.013,0.0126 -0.068,0.10584 -0.1202,0.2072 -0.053,0.10138 -0.1318,0.24028 -0.1767,0.30867 -0.066,0.1 -0.069,0.12886 -0.019,0.14729 0.077,0.0282 1.4326,0.0532 1.6099,0.0298 0.07,-0.009 0.1591,-0.0608 0.1974,-0.11449 z m 27.2253,-0.0162 c 0.023,-0.062 0.074,-0.27053 0.1137,-0.46342 0.038,-0.19289 0.1297,-0.598 0.2015,-0.90026 0.072,-0.30226 0.1757,-0.75565 0.2311,-1.00754 0.3734,-1.69856 0.456,-2.07005 0.5297,-2.38437 0.036,-0.15273 0.065,-0.28944 0.065,-0.30379 0,-0.0143 -0.6877,-0.71371 -1.5285,-1.55416 -0.8406,-0.84046 -1.5878,-1.61924 -1.6601,-1.73068 l -0.1317,-0.20258 -0.028,-1.58349 c -0.015,-0.87093 -0.053,-1.7583 -0.082,-1.97198 -0.2136,-1.55153 -1.095,-3.08628 -2.3633,-4.1158 -1.1355,-0.92163 -2.6538,-1.47222 -4.0597,-1.47222 -0.716,0 -1.6493,-0.1334 -2.2603,-0.32305 -1.055,-0.32751 -1.9628,-0.82174 -3.0226,-1.64551 -0.5924,-0.46047 -1.5647,-1.07133 -2.1391,-1.34391 -1.2319,-0.58459 -3.3317,-0.93685 -4.5384,-0.76134 -1.5124,0.21996 -2.5047,0.56675 -3.641,1.27236 -0.3325,0.20648 -0.9751,0.6651 -1.1145,0.79547 -0.1273,0.11905 -0.4832,0.43162 -0.7719,0.67787 -0.1624,0.13855 -0.3782,0.32558 -0.4796,0.41569 -0.1014,0.0901 -0.4626,0.39839 -0.8027,0.68516 -0.3401,0.28676 -0.6418,0.5428 -0.6705,0.56896 -0.028,0.0261 -0.2137,0.18155 -0.4111,0.34526 -0.1975,0.16372 -0.4729,0.40219 -0.6119,0.5299 -0.1391,0.12773 -0.5002,0.4404 -0.8024,0.69483 -0.3023,0.2544 -0.6037,0.51056 -0.67,0.5692 -0.066,0.0586 -0.2801,0.2406 -0.4754,0.40432 -0.1951,0.16372 -0.5124,0.43165 -0.705,0.59536 -0.1925,0.16372 -0.4063,0.34186 -0.4749,0.39587 -0.068,0.054 -0.1249,0.12002 -0.1249,0.14673 0,0.0337 0.7635,0.0456 2.4992,0.0393 2.8339,-0.0106 2.5225,0.037 2.6828,-0.41039 0.1074,-0.29947 0.4627,-0.82196 0.6933,-1.01935 0.3945,-0.33767 0.9639,-0.56342 1.5252,-0.60477 0.382,-0.0281 0.6019,0.0521 0.7629,0.27811 0.096,0.13514 0.1032,0.20712 0.1407,1.4484 0.055,1.82634 -0.02,2.42478 -0.3906,3.1245 -0.1989,0.37524 -0.6405,0.81795 -0.9934,0.99594 -0.6488,0.32723 -0.7218,0.33951 -2.1295,0.35824 -0.9944,0.0131 -1.2855,0.004 -1.3134,-0.0409 -0.051,-0.0821 -0.047,-1.19418 0.01,-1.27686 0.035,-0.057 0.2425,-0.073 1.2236,-0.0942 1.3435,-0.029 1.4371,-0.0513 1.7893,-0.42716 0.3614,-0.38554 0.3764,-0.44742 0.3764,-1.5579 0,-0.62427 -0.017,-0.99439 -0.048,-1.01286 -0.1069,-0.0661 -0.3084,0.28958 -0.5974,1.05412 -0.1447,0.38281 -0.2484,0.51639 -0.4455,0.57349 -0.117,0.0339 -1.6089,0.0449 -4.8244,0.0355 -5.355,-0.0158 -4.7415,0.0491 -5.0122,-0.52915 -0.086,-0.18355 -0.1562,-0.3507 -0.1562,-0.37148 0,-0.0936 -0.3663,-0.77471 -0.4297,-0.79903 -0.1081,-0.0415 -0.1293,0.16958 -0.1122,1.11778 0.014,0.79738 0.022,0.85669 0.1347,1.09493 0.1429,0.30143 0.3235,0.49661 0.6214,0.6715 0.2192,0.12873 0.2279,0.12984 1.2098,0.15578 1.1222,0.0297 1.2144,0.0553 1.388,0.38634 0.094,0.17869 0.097,0.25153 0.119,2.9768 l 0.023,2.79361 0.7785,0.013 c 0.4282,0.007 0.8236,0.002 0.8787,-0.0116 0.055,-0.0134 0.2302,-0.16139 0.3892,-0.32852 0.7282,-0.76518 1.4666,-1.48696 1.6361,-1.59913 l 0.1857,-0.12291 4.1798,-0.006 4.1797,-0.006 0.013,-0.61523 c 0.01,-0.35799 0.034,-0.64043 0.062,-0.6755 0.07,-0.0849 1.2427,-0.086 1.3131,-0.002 0.063,0.0756 0.079,4.01489 0.018,4.2501 -0.023,0.0904 -0.118,0.29247 -0.2097,0.44897 -0.092,0.15648 -0.1668,0.29039 -0.1668,0.29758 0,0.0109 -0.3273,0.59774 -0.8457,1.51624 -0.057,0.10076 -0.1708,0.30684 -0.2533,0.45798 -0.083,0.15112 -0.2605,0.44551 -0.3956,0.65418 -0.1352,0.20866 -0.2457,0.40834 -0.2457,0.44371 0,0.094 0.2874,0.12253 1.0738,0.10664 l 0.6847,-0.0138 0.2202,-0.38229 c 0.1211,-0.21025 0.3007,-0.5297 0.399,-0.70985 0.098,-0.18016 0.3248,-0.58193 0.5034,-0.89284 0.1786,-0.31089 0.3247,-0.57406 0.3247,-0.58481 0,-0.0108 0.05,-0.0984 0.1106,-0.19468 0.061,-0.0963 0.272,-0.46172 0.4694,-0.81199 l 0.3588,-0.63685 0.011,-2.63333 c 0.01,-1.44833 0.021,-2.65907 0.033,-2.69056 0.03,-0.0793 1.2646,-0.0814 1.3437,-0.002 0.04,0.04 0.055,0.39211 0.056,1.29377 3e-4,0.70035 0.02,1.26866 0.044,1.3075 0.037,0.06 0.5327,0.0707 3.8951,0.0843 2.1184,0.009 3.904,0.003 3.9679,-0.0135 0.1299,-0.0327 0.1319,-0.0143 -0.056,-0.50587 -0.2183,-0.5739 -0.3353,-1.26481 -0.3421,-2.02246 -0.01,-0.37376 -0.01,-0.72592 -0.01,-0.78259 0.01,-0.102 0.01,-0.10305 0.6685,-0.10305 0.6479,0 0.6662,0.002 0.7035,0.10305 0.021,0.0566 0.051,0.45339 0.065,0.88158 0.018,0.49803 0.054,0.87755 0.1019,1.05333 0.081,0.29748 0.3737,0.89304 0.4389,0.89304 0.022,0 0.04,0.026 0.04,0.0579 0,0.087 0.5305,0.6573 0.755,0.81181 0.5312,0.36545 1.1398,0.59255 3.0691,1.14549 0.2015,0.0577 0.4798,0.14114 0.6183,0.1853 0.1385,0.0442 0.4786,0.14648 0.7557,0.22737 0.6046,0.17652 0.791,0.27333 0.9273,0.48173 0.1388,0.21211 0.1336,0.53214 -0.017,1.02896 -0.1189,0.3932 -0.1331,0.44325 -0.2677,0.93882 -0.041,0.15113 -0.1684,0.58391 -0.2827,0.96174 -0.1144,0.37782 -0.2357,0.78999 -0.2694,0.91594 -0.033,0.12594 -0.083,0.287 -0.1105,0.35791 -0.1008,0.26388 -0.1201,0.25723 0.7866,0.27076 0.9981,0.0148 1.0362,0.0102 1.0915,-0.13513 z m -6.8763,0.0595 c 0.049,-0.0594 0.2781,-0.88446 0.3693,-1.3316 0.02,-0.10075 0.1017,-0.43049 0.1804,-0.73276 0.078,-0.30225 0.1617,-0.632 0.1844,-0.73274 0.022,-0.10076 0.064,-0.26564 0.091,-0.36639 0.027,-0.10075 0.068,-0.26563 0.09,-0.36638 0.022,-0.10075 0.074,-0.30635 0.1159,-0.45691 0.041,-0.15055 0.069,-0.35588 0.062,-0.45633 -0.013,-0.1613 -0.03,-0.18611 -0.1511,-0.21273 -0.2086,-0.0458 -0.7053,-0.2835 -1.0581,-0.5064 l -0.3158,-0.1995 -1.3624,-0.0133 c -0.8561,-0.008 -1.3625,0.003 -1.3625,0.0309 0,0.0243 0.08,0.0922 0.1777,0.15079 0.098,0.0585 0.3879,0.25072 0.6451,0.42705 0.2571,0.17631 0.5147,0.35149 0.5725,0.38926 0.6818,0.44651 0.9862,0.74143 0.9862,0.95562 0,0.14376 -0.1825,0.74491 -0.5787,1.9067 -0.1375,0.40302 -0.28,0.84264 -0.3169,0.97694 -0.037,0.1343 -0.087,0.28235 -0.1124,0.32901 -0.025,0.0466 -0.046,0.12741 -0.046,0.17945 0,0.0923 0.021,0.0946 0.8875,0.0946 0.7118,0 0.8981,-0.0129 0.9415,-0.0652 z"
         id="path167" />
      <path
         style="fill:#fd6578;fill-opacity:1;stroke-width:1"
         d="m 986.86966,-179.70783 c -1.4955,-0.0253 -1.5035,-0.0268 -1.6974,-0.33452 -0.072,-0.11417 -0.087,-0.19823 -0.07,-0.38225 0.012,-0.12976 0.2812,-1.00896 0.5982,-1.95381 0.3168,-0.94484 0.5762,-1.76044 0.5762,-1.81245 0,-0.0536 -0.055,-0.12854 -0.126,-0.17303 -0.3515,-0.21894 -1.022,-0.65888 -2.1293,-1.39703 l -1.2248,-0.81645 h -1.8665 c -1.0265,0 -1.8903,0.0159 -1.9194,0.0343 -0.037,0.0235 -0.051,0.24886 -0.046,0.74349 l 0.01,0.70978 -0.2473,0.45797 c -0.1359,0.25188 -0.3265,0.58887 -0.4236,0.74888 -0.097,0.16 -0.1764,0.29719 -0.1764,0.30487 0,0.0279 -0.6443,1.13479 -0.7331,1.25951 -0.05,0.0705 -0.091,0.13742 -0.091,0.14882 0,0.0114 -0.099,0.19367 -0.2208,0.4051 -0.1215,0.21142 -0.3107,0.54926 -0.4202,0.75077 -0.3822,0.70275 -0.4362,0.79571 -0.5838,1.00503 -0.082,0.11588 -0.2017,0.23083 -0.2664,0.25545 -0.07,0.0266 -0.9057,0.0447 -2.0575,0.0447 h -1.9399 l -0.1426,-0.11995 c -0.3064,-0.25784 -0.3464,-0.55517 -0.1351,-1.00208 0.1174,-0.24834 0.7297,-1.35317 1.2746,-2.29993 0.09,-0.15669 0.2856,-0.49673 0.4344,-0.75564 0.1487,-0.25893 0.3271,-0.56352 0.3964,-0.67686 0.069,-0.11336 0.2007,-0.35402 0.2921,-0.53483 l 0.1659,-0.32874 -0.013,-0.56429 -0.013,-0.56431 -0.9585,-0.0124 c -0.7362,-0.01 -0.9671,0.002 -0.9954,0.0458 -0.02,0.032 -0.037,0.37521 -0.037,0.76267 v 0.70447 l -0.227,0.42372 c -0.1249,0.23305 -0.2927,0.5343 -0.3728,0.66945 -0.223,0.37597 -0.3162,0.5401 -0.4905,0.86396 -0.088,0.16374 -0.2499,0.44675 -0.3594,0.62893 -0.1094,0.18219 -0.199,0.33896 -0.199,0.34838 0,0.009 -0.2216,0.40648 -0.4923,0.88237 -0.2708,0.47588 -0.5216,0.92192 -0.5573,0.99118 -0.036,0.0693 -0.082,0.12595 -0.1031,0.12595 -0.021,0 -0.038,0.0288 -0.038,0.064 0,0.0352 -0.073,0.12792 -0.1619,0.20608 l -0.1619,0.14214 h -1.9471 c -2.1284,0 -2.0897,0.004 -2.3224,-0.27204 -0.2629,-0.31231 -0.2047,-0.52364 0.4546,-1.65143 0.2283,-0.39042 0.6788,-1.18385 1.0011,-1.76318 0.3223,-0.57932 0.6212,-1.10484 0.6643,-1.16781 0.043,-0.063 0.1672,-0.27892 0.276,-0.47989 l 0.1978,-0.36538 -0.01,-0.54894 c -0.01,-0.37062 -0.027,-0.5604 -0.065,-0.5842 -0.031,-0.0193 -0.2559,-0.0355 -0.5009,-0.0359 h -0.4454 l -1.0119,1.00548 c -0.8758,0.87027 -1.0376,1.01149 -1.2033,1.0503 -0.2037,0.0477 -2.7777,0.0284 -3.1009,-0.0234 -0.2708,-0.0434 -0.436,-0.21878 -0.4927,-0.52319 -0.027,-0.14903 -0.048,-1.31841 -0.051,-2.89802 0,-1.4565 -0.016,-2.66726 -0.03,-2.69058 -0.014,-0.0234 -0.2225,-0.0424 -0.4624,-0.0424 -0.5145,0 -1.0407,-0.11805 -1.4819,-0.3324 -0.5672,-0.27564 -1.0729,-0.9147 -1.3063,-1.65069 -0.1122,-0.35367 -0.1133,-0.37458 -0.1133,-2.07071 v -1.71342 l 0.1481,-0.1687 c 0.1855,-0.21125 0.3767,-0.29261 0.6862,-0.29192 0.5957,0.002 1.3315,0.35932 1.7926,0.87205 0.1185,0.1319 0.2957,0.41319 0.3984,0.63273 0.1016,0.21739 0.2017,0.42616 0.2222,0.46396 0.048,0.088 0.3837,0.0956 0.5951,0.0135 0.2084,-0.081 0.4705,-0.29693 2.0686,-1.7043 0.2122,-0.18688 0.4992,-0.4375 0.6377,-0.55695 0.1386,-0.11944 0.4992,-0.43111 0.8015,-0.69259 0.3023,-0.26146 0.6135,-0.52605 0.6916,-0.58797 0.3477,-0.27556 2.2136,-1.86511 2.3081,-1.96629 0.013,-0.0135 0.1568,-0.13761 0.3206,-0.27582 0.1637,-0.13823 0.308,-0.26215 0.3206,-0.27538 0.013,-0.0132 0.1774,-0.15762 0.3664,-0.32086 0.1889,-0.16325 0.3537,-0.30807 0.3664,-0.32181 0.11,-0.12019 1.2056,-1.00005 1.41,-1.13238 0.2825,-0.18285 0.2885,-0.18638 0.7654,-0.45279 2.0268,-1.13239 4.3829,-1.53748 6.5946,-1.13385 1.7628,0.32167 3.0335,0.90105 4.7172,2.15075 1.9362,1.43725 2.5961,1.68586 4.9232,1.85516 0.816,0.0594 1.861,0.25488 2.3185,0.43376 0.3562,0.13933 1.1227,0.50867 1.4471,0.69733 0.7311,0.42521 1.5315,1.11654 2.0811,1.79752 0.2824,0.34986 0.6564,0.90054 0.6564,0.96647 0,0.13291 0.4876,0.69889 0.8701,1.01002 0.1134,0.0922 0.2967,0.2425 0.4075,0.33406 0.2815,0.23264 0.538,0.37164 0.8101,0.43891 0.2173,0.0537 0.25,0.0498 0.4838,-0.0572 0.5106,-0.23374 0.6959,-0.78521 0.413,-1.22932 -0.072,-0.11199 -0.6844,-0.76012 -1.3624,-1.44027 -0.8431,-0.84556 -1.2644,-1.30178 -1.3327,-1.44261 -0.2905,-0.59927 -0.2961,-0.6178 -0.3216,-1.05317 -0.032,-0.54266 0.029,-0.84936 0.2631,-1.32088 0.1982,-0.40025 0.3325,-0.56205 0.6392,-0.77035 0.5658,-0.3842 0.764,-0.42449 2.0838,-0.42378 0.8983,0 1.0766,0.0122 1.212,0.0786 0.4268,0.20969 0.5226,0.82316 0.1774,1.137 -0.2317,0.21063 -0.2923,0.22133 -1.3894,0.24568 -1.035,0.023 -1.056,0.0254 -1.2067,0.13787 -0.3875,0.28937 -0.5067,0.84284 -0.2546,1.18148 0.069,0.0932 0.6575,0.70535 1.3068,1.36025 1.2855,1.29654 1.426,1.45491 1.5645,1.76294 0.305,0.67823 0.2754,1.37455 -0.088,2.06578 -0.3675,0.69991 -0.9285,1.10401 -1.6429,1.18357 -0.2015,0.0224 -0.4281,0.0313 -0.5038,0.0198 -0.4162,-0.0637 -0.7053,-0.12445 -0.8521,-0.17898 l -0.1653,-0.0614 0.019,1.51977 c 0.011,0.83588 0.027,1.56098 0.037,1.61137 0.011,0.0504 0.4649,0.53468 1.01,1.07623 1.495,1.48515 2.1594,2.16349 2.2901,2.33813 0.1382,0.18451 0.1343,0.35831 -0.022,1.00504 -0.052,0.2141 -0.1265,0.54384 -0.1655,0.73275 -0.038,0.18891 -0.1119,0.52366 -0.1617,0.74391 -0.05,0.22026 -0.133,0.59121 -0.1847,0.82435 -0.052,0.23315 -0.133,0.58877 -0.1811,0.79027 -0.048,0.20151 -0.1301,0.56217 -0.1824,0.80146 -0.053,0.23928 -0.1136,0.5175 -0.1361,0.61825 -0.022,0.10075 -0.065,0.29653 -0.095,0.43507 -0.129,0.59892 -0.2794,1.02316 -0.4083,1.15212 -0.1487,0.14867 0.081,0.13758 -2.6962,0.13024 -1.5446,-0.004 -1.6176,-0.0158 -1.7849,-0.28642 -0.1625,-0.26301 -0.1209,-0.58137 0.2232,-1.7058 0.054,-0.17631 0.1454,-0.48543 0.2033,-0.68695 0.058,-0.2015 0.1673,-0.56215 0.243,-0.80144 0.076,-0.23929 0.1826,-0.61024 0.2375,-0.82433 0.055,-0.21413 0.1224,-0.46668 0.15,-0.56125 0.027,-0.0946 0.042,-0.17906 0.031,-0.18772 -0.011,-0.009 -0.2662,-0.0786 -0.5684,-0.15555 -0.3022,-0.0769 -0.7239,-0.19222 -0.9372,-0.2563 -0.2477,-0.0745 -0.4062,-0.10111 -0.439,-0.0738 -0.028,0.0235 -0.078,0.16148 -0.1111,0.30663 -0.033,0.14516 -0.1715,0.70701 -0.3083,1.24854 -0.1367,0.54156 -0.2659,1.06708 -0.2869,1.16783 -0.072,0.34115 -0.4971,1.96781 -0.5752,2.19825 -0.1186,0.34945 -0.1942,0.47318 -0.3336,0.5452 -0.1615,0.0836 -0.9065,0.10362 -2.7125,0.073 z m -18.5637,-1.52825 c 0.037,-0.0536 0.1883,-0.31394 0.3336,-0.57842 0.3978,-0.72461 0.4781,-0.86562 0.6851,-1.20297 0.1046,-0.17047 0.1901,-0.32198 0.1901,-0.3367 0,-0.0148 0.1237,-0.2303 0.2748,-0.47906 0.1511,-0.24876 0.2748,-0.46142 0.2748,-0.47258 0,-0.0111 0.099,-0.19192 0.2192,-0.40173 0.399,-0.69401 0.3983,-0.69209 0.3876,-1.24582 -0.01,-0.29145 -0.031,-0.52415 -0.062,-0.56102 -0.073,-0.0877 -1.915,-0.0932 -1.926,-0.006 -0.01,0.0314 -0.01,0.3561 -0.012,0.7213 -0.01,0.73327 -0.01,0.74595 -0.4638,1.55712 -0.092,0.1637 -0.251,0.45223 -0.3534,0.64114 -0.1595,0.29404 -0.4825,0.85664 -0.9074,1.58 -0.059,0.10075 -0.1187,0.19349 -0.1325,0.20608 -0.013,0.0126 -0.068,0.10584 -0.1202,0.2072 -0.053,0.10138 -0.1318,0.24028 -0.1767,0.30867 -0.066,0.1 -0.069,0.12886 -0.019,0.14729 0.077,0.0282 1.4326,0.0532 1.6099,0.0298 0.07,-0.009 0.1591,-0.0608 0.1974,-0.11449 z m 27.2253,-0.0162 c 0.023,-0.062 0.074,-0.27053 0.1137,-0.46342 0.038,-0.19289 0.1297,-0.598 0.2015,-0.90026 0.072,-0.30226 0.1757,-0.75565 0.2311,-1.00754 0.3734,-1.69856 0.456,-2.07005 0.5297,-2.38437 0.036,-0.15273 0.065,-0.28944 0.065,-0.30379 0,-0.0143 -0.6877,-0.71371 -1.5285,-1.55416 -0.8406,-0.84046 -1.5878,-1.61924 -1.6601,-1.73068 l -0.1317,-0.20258 -0.028,-1.58349 c -0.015,-0.87093 -0.053,-1.7583 -0.082,-1.97198 -0.2136,-1.55153 -1.095,-3.08628 -2.3633,-4.1158 -1.1355,-0.92163 -2.6538,-1.47222 -4.0597,-1.47222 -0.716,0 -1.6493,-0.1334 -2.2603,-0.32305 -1.055,-0.32751 -1.9628,-0.82174 -3.0226,-1.64551 -0.5924,-0.46047 -1.5647,-1.07133 -2.1391,-1.34391 -1.2319,-0.58459 -3.3317,-0.93685 -4.5384,-0.76134 -1.5124,0.21996 -2.5047,0.56675 -3.641,1.27236 -0.3325,0.20648 -0.9751,0.6651 -1.1145,0.79547 -0.1273,0.11905 -0.4832,0.43162 -0.7719,0.67787 -0.1624,0.13855 -0.3782,0.32558 -0.4796,0.41569 -0.1014,0.0901 -0.4626,0.39839 -0.8027,0.68516 -0.3401,0.28676 -0.6418,0.5428 -0.6705,0.56896 -0.028,0.0261 -0.2137,0.18155 -0.4111,0.34526 -0.1975,0.16372 -0.4729,0.40219 -0.6119,0.5299 -0.1391,0.12773 -0.5002,0.4404 -0.8024,0.69483 -0.3023,0.2544 -0.6037,0.51056 -0.67,0.5692 -0.066,0.0586 -0.2801,0.2406 -0.4754,0.40432 -0.1951,0.16372 -0.5124,0.43165 -0.705,0.59536 -0.1925,0.16372 -0.4063,0.34186 -0.4749,0.39587 -0.068,0.054 -0.1249,0.12002 -0.1249,0.14673 0,0.0337 0.7635,0.0456 2.4992,0.0393 2.8339,-0.0106 2.5225,0.037 2.6828,-0.41039 0.1074,-0.29947 0.4627,-0.82196 0.6933,-1.01935 0.3945,-0.33767 0.9639,-0.56342 1.5252,-0.60477 0.382,-0.0281 0.6019,0.0521 0.7629,0.27811 0.096,0.13514 0.1032,0.20712 0.1407,1.4484 0.055,1.82634 -0.02,2.42478 -0.3906,3.1245 -0.1989,0.37524 -0.6405,0.81795 -0.9934,0.99594 -0.6488,0.32723 -0.7218,0.33951 -2.1295,0.35824 -0.9944,0.0131 -1.2855,0.004 -1.3134,-0.0409 -0.051,-0.0821 -0.047,-1.19418 0.01,-1.27686 0.035,-0.057 0.2425,-0.073 1.2236,-0.0942 1.3435,-0.029 1.4371,-0.0513 1.7893,-0.42716 0.3614,-0.38554 0.3764,-0.44742 0.3764,-1.5579 0,-0.62427 -0.017,-0.99439 -0.048,-1.01286 -0.1069,-0.0661 -0.3084,0.28958 -0.5974,1.05412 -0.1447,0.38281 -0.2484,0.51639 -0.4455,0.57349 -0.117,0.0339 -1.6089,0.0449 -4.8244,0.0355 -5.355,-0.0158 -4.7415,0.0491 -5.0122,-0.52915 -0.086,-0.18355 -0.1562,-0.3507 -0.1562,-0.37148 0,-0.0936 -0.3663,-0.77471 -0.4297,-0.79903 -0.1081,-0.0415 -0.1293,0.16958 -0.1122,1.11778 0.014,0.79738 0.022,0.85669 0.1347,1.09493 0.1429,0.30143 0.3235,0.49661 0.6214,0.6715 0.2192,0.12873 0.2279,0.12984 1.2098,0.15578 1.1222,0.0297 1.2144,0.0553 1.388,0.38634 0.094,0.17869 0.097,0.25153 0.119,2.9768 l 0.023,2.79361 0.7785,0.013 c 0.4282,0.007 0.8236,0.002 0.8787,-0.0116 0.055,-0.0134 0.2302,-0.16139 0.3892,-0.32852 0.7282,-0.76518 1.4666,-1.48696 1.6361,-1.59913 l 0.1857,-0.12291 4.1798,-0.006 4.1797,-0.006 0.013,-0.61523 c 0.01,-0.35799 0.034,-0.64043 0.062,-0.6755 0.07,-0.0849 1.2427,-0.086 1.3131,-0.002 0.063,0.0756 0.079,4.01489 0.018,4.2501 -0.023,0.0904 -0.118,0.29247 -0.2097,0.44897 -0.092,0.15648 -0.1668,0.29039 -0.1668,0.29758 0,0.0109 -0.3273,0.59774 -0.8457,1.51624 -0.057,0.10076 -0.1708,0.30684 -0.2533,0.45798 -0.083,0.15112 -0.2605,0.44551 -0.3956,0.65418 -0.1352,0.20866 -0.2457,0.40834 -0.2457,0.44371 0,0.094 0.2874,0.12253 1.0738,0.10664 l 0.6847,-0.0138 0.2202,-0.38229 c 0.1211,-0.21025 0.3007,-0.5297 0.399,-0.70985 0.098,-0.18016 0.3248,-0.58193 0.5034,-0.89284 0.1786,-0.31089 0.3247,-0.57406 0.3247,-0.58481 0,-0.0108 0.05,-0.0984 0.1106,-0.19468 0.061,-0.0963 0.272,-0.46172 0.4694,-0.81199 l 0.3588,-0.63685 0.011,-2.63333 c 0.01,-1.44833 0.021,-2.65907 0.033,-2.69056 0.03,-0.0793 1.2646,-0.0814 1.3437,-0.002 0.04,0.04 0.055,0.39211 0.056,1.29377 3e-4,0.70035 0.02,1.26866 0.044,1.3075 0.037,0.06 0.5327,0.0707 3.8951,0.0843 2.1184,0.009 3.904,0.003 3.9679,-0.0135 0.1299,-0.0327 0.1319,-0.0143 -0.056,-0.50587 -0.2183,-0.5739 -0.3353,-1.26481 -0.3421,-2.02246 -0.01,-0.37376 -0.01,-0.72592 -0.01,-0.78259 0.01,-0.102 0.01,-0.10305 0.6685,-0.10305 0.6479,0 0.6662,0.002 0.7035,0.10305 0.021,0.0566 0.051,0.45339 0.065,0.88158 0.018,0.49803 0.054,0.87755 0.1019,1.05333 0.081,0.29748 0.3737,0.89304 0.4389,0.89304 0.022,0 0.04,0.026 0.04,0.0579 0,0.087 0.5305,0.6573 0.755,0.81181 0.5312,0.36545 1.1398,0.59255 3.0691,1.14549 0.2015,0.0577 0.4798,0.14114 0.6183,0.1853 0.1385,0.0442 0.4786,0.14648 0.7557,0.22737 0.6046,0.17652 0.791,0.27333 0.9273,0.48173 0.1388,0.21211 0.1336,0.53214 -0.017,1.02896 -0.1189,0.3932 -0.1331,0.44325 -0.2677,0.93882 -0.041,0.15113 -0.1684,0.58391 -0.2827,0.96174 -0.1144,0.37782 -0.2357,0.78999 -0.2694,0.91594 -0.033,0.12594 -0.083,0.287 -0.1105,0.35791 -0.1008,0.26388 -0.1201,0.25723 0.7866,0.27076 0.9981,0.0148 1.0362,0.0102 1.0915,-0.13513 z m -6.8763,0.0595 c 0.049,-0.0594 0.2781,-0.88446 0.3693,-1.3316 0.02,-0.10075 0.1017,-0.43049 0.1804,-0.73276 0.078,-0.30225 0.1617,-0.632 0.1844,-0.73274 0.022,-0.10076 0.064,-0.26564 0.091,-0.36639 0.027,-0.10075 0.068,-0.26563 0.09,-0.36638 0.022,-0.10075 0.074,-0.30635 0.1159,-0.45691 0.041,-0.15055 0.069,-0.35588 0.062,-0.45633 -0.013,-0.1613 -0.03,-0.18611 -0.1511,-0.21273 -0.2086,-0.0458 -0.7053,-0.2835 -1.0581,-0.5064 l -0.3158,-0.1995 -1.3624,-0.0133 c -0.8561,-0.008 -1.3625,0.003 -1.3625,0.0309 0,0.0243 0.08,0.0922 0.1777,0.15079 0.098,0.0585 0.3879,0.25072 0.6451,0.42705 0.2571,0.17631 0.5147,0.35149 0.5725,0.38926 0.6818,0.44651 0.9862,0.74143 0.9862,0.95562 0,0.14376 -0.1825,0.74491 -0.5787,1.9067 -0.1375,0.40302 -0.28,0.84264 -0.3169,0.97694 -0.037,0.1343 -0.087,0.28235 -0.1124,0.32901 -0.025,0.0466 -0.046,0.12741 -0.046,0.17945 0,0.0923 0.021,0.0946 0.8875,0.0946 0.7118,0 0.8981,-0.0129 0.9415,-0.0652 z"
         id="path1" />
      <g
         id="g9"
         transform="matrix(0.75939328,0,0,0.75939328,256.61043,-173.83325)"
         style="stroke-width:1.31684">
        <path
           style="fill:#ffffff;fill-opacity:1;stroke-width:1.31684"
           d="m 1040.5912,-8.3026065 c 0,-0.035831 0.3743,-1.7097355 0.8317,-3.7197885 1.6213,-7.124088 3.5599,-15.721028 3.6186,-16.046592 l 0.06,-0.330159 h -3.5417 -3.5418 l 0.042,-0.198094 c 0.023,-0.108952 0.3059,-1.386667 0.6282,-2.839363 0.3222,-1.4527 0.6414,-2.892365 0.7094,-3.199255 0.068,-0.306893 0.1365,-0.570983 0.1524,-0.586869 0.042,-0.04169 16.2482,-0.09343 20.0918,-0.06415 l 3.2467,0.02472 -0.05,0.283986 c -0.043,0.242185 -1.2848,5.807567 -1.4244,6.380912 l -0.048,0.198095 h -3.5222 -3.5222 l -0.074,0.198094 c -0.041,0.108955 -0.2216,0.851811 -0.402,1.650794 -0.1803,0.798986 -0.6829,2.997842 -1.1168,4.886348 -0.4339,1.888507 -0.9453,4.126982 -1.1363,4.974391 -0.3129,1.387558 -0.7748,3.426598 -1.5854,6.9993602 -0.1538,0.677925 -0.3195,1.2821175 -0.3683,1.3426463 -0.069,0.085439 -1.0904,0.1100531 -4.5679,0.1100531 -2.4637,0 -4.4794,-0.029316 -4.4794,-0.065147 z"
           id="path2" />
        <path
           style="fill:#ffffff;fill-opacity:1;stroke-width:1.31684"
           d="m 1132.8014,-8.3911402 c 0.029,-0.1333795 0.4703,-2.0451758 0.9814,-4.2484348 0.5111,-2.203259 1.2087,-5.234114 1.5503,-6.735237 0.3416,-1.501119 1.0561,-4.611214 1.5878,-6.911319 0.5317,-2.300105 1.1426,-4.954581 1.3576,-5.898832 0.2151,-0.944255 0.4623,-1.994157 0.5494,-2.333122 l 0.1584,-0.616295 4.5621,-0.02279 4.562,-0.02279 -0.062,0.242913 c -0.034,0.133603 -0.3377,1.471104 -0.6749,2.972227 -0.3372,1.501119 -0.9301,4.096168 -1.3175,5.76677 -0.3875,1.6706 -1.0003,4.325076 -1.3619,5.898833 -0.3616,1.573757 -0.7754,3.370029 -0.9195,3.991718 -0.1442,0.621689 -0.2621,1.166451 -0.2621,1.210581 0,0.04733 2.0198,0.08024 4.9251,0.08024 2.7089,0 4.9461,0.03377 4.9716,0.07505 0.044,0.07143 -0.1924,1.258153 -0.5553,2.786328 -0.092,0.387388 -0.2904,1.239196 -0.4409,1.892909 -0.1504,0.6537138 -0.3228,1.3866671 -0.383,1.628782 l -0.1095,0.4402126 -9.5856,0.022395 -9.5857,0.022395 z"
           id="path3" />
        <path
           style="fill:#ffffff;fill-opacity:1;stroke-width:1.31684"
           d="m 1111.4258,-8.2300719 c -0.027,-0.04436 -0.012,-0.1800288 0.034,-0.3014889 0.046,-0.1214568 0.2272,-0.8676406 0.4023,-1.6581812 0.5757,-2.599547 1.1884,-5.287452 1.5419,-6.763904 0.3548,-1.482172 1.6152,-6.983791 2.5616,-11.181373 0.6896,-3.058757 1.4422,-6.205745 1.5897,-6.647192 l 0.1176,-0.352169 4.5118,-0.02279 c 3.5801,-0.0181 4.5118,7.9e-5 4.5119,0.08804 10e-5,0.06097 -0.08,0.447613 -0.1769,0.859211 -0.1883,0.796364 -2.8865,12.553595 -3.7783,16.463911 -0.2927,1.283216 -0.5572,2.422264 -0.5879,2.531216 l -0.056,0.198094 h 4.9847 c 4.8461,0 4.9846,0.0047 4.9846,0.16801 0,0.09241 -0.1626,0.874881 -0.3613,1.738835 -0.1987,0.863953 -0.5147,2.244348 -0.7022,3.067545 -0.1875,0.8231941 -0.3624,1.5858627 -0.3887,1.6948144 l -0.048,0.1980943 h -9.5458 c -5.6858,0 -9.5658,-0.03261 -9.5955,-0.080654 z"
           id="path4" />
        <path
           style="fill:#ffffff;fill-opacity:1;stroke-width:1.31684"
           d="m 1059.0361,-8.2036941 c -0.3925,-0.098247 -0.3881,-0.088577 -0.2602,-0.5786034 0.067,-0.2572055 0.5558,-2.3693615 1.0859,-4.6936785 0.8523,-3.737135 1.4735,-6.442689 4.1946,-18.268775 0.8786,-3.818724 0.7755,-3.502633 1.1669,-3.576063 0.1792,-0.03363 2.8025,-0.06487 5.8296,-0.06942 5.7677,-0.0087 6.7759,0.03789 8.5851,0.396498 2.9572,0.586157 4.79,2.76002 4.5812,5.433706 -0.1639,2.099039 -1.0559,3.865952 -2.7787,5.504048 -0.4958,0.471465 -0.8863,0.870366 -0.8678,0.886445 0.019,0.01607 0.2065,0.136867 0.4176,0.268413 0.6241,0.388801 1.437,1.278487 1.7391,1.903107 0.4223,0.873395 0.5056,1.36193 0.4481,2.627483 -0.111,2.440938 -1.098,4.57685 -2.979,6.446436 -0.934,0.928286 -1.8779,1.597543 -3.1457,2.2304056 -1.5411,0.7692805 -2.7709,1.1305062 -4.6783,1.3741851 -0.754,0.09632 -12.9918,0.2025799 -13.3384,0.1158132 z m 13.0958,-6.8531759 c 0.5851,-0.213106 1.2313,-0.821078 1.4752,-1.387942 0.271,-0.629705 0.2894,-1.491389 0.041,-1.914395 -0.3255,-0.554149 -0.6302,-0.659437 -2.0088,-0.69409 -0.794,-0.01997 -1.2526,0.0023 -1.3144,0.06422 -0.052,0.05218 -0.2818,0.897978 -0.5102,1.879545 -0.2285,0.98157 -0.4447,1.898269 -0.4806,2.037113 l -0.065,0.25244 1.2227,-0.04238 c 0.8479,-0.02938 1.3508,-0.08901 1.6404,-0.19451 z m 1.518,-10.561725 c 0.6932,-0.291669 1.1018,-0.892274 1.1018,-1.619474 0,-0.847572 -0.5892,-1.299132 -1.7681,-1.355115 l -0.549,-0.02605 -0.333,1.49672 c -0.1831,0.823194 -0.3353,1.551738 -0.3382,1.618985 -0.01,0.171181 1.412,0.08462 1.8865,-0.115047 z"
           id="path5" />
        <path
           style="fill:#ffffff;fill-opacity:1;stroke-width:1.31684"
           d="m 982.1448,-8.2126486 c -0.16252,-0.030913 -0.19558,-0.079885 -0.15531,-0.230129 0.0595,-0.2220962 0.3837,-1.6266084 1.37502,-5.9576444 0.39347,-1.719025 1.04772,-4.551787 1.4539,-6.295024 0.40617,-1.743238 1.05975,-4.575995 1.45238,-6.295021 0.39264,-1.719026 0.97229,-4.254644 1.28811,-5.634709 0.31582,-1.380062 0.60054,-2.536011 0.63272,-2.568771 0.10918,-0.111184 1.10754,-0.150143 5.38505,-0.210146 4.40967,-0.06186 6.65733,0.01 8.53493,0.272775 1.0973,0.153591 1.6486,0.303735 2.4112,0.656678 1.9392,0.897592 2.9738,2.446712 2.9786,4.460235 0,2.281458 -0.9063,4.242991 -2.7817,5.984012 -0.4631,0.429947 -0.842,0.807671 -0.842,0.839386 -10e-5,0.03171 0.1683,0.157202 0.3741,0.278855 0.6433,0.380293 1.4251,1.234067 1.7684,1.931322 0.3943,0.800953 0.5086,1.312962 0.507,2.27241 0,2.343241 -1.1126,4.86264 -2.948,6.698131 -1.0241,1.02406 -1.9523,1.684862 -3.2576,2.3191422 -2.87449,1.3967461 -4.13595,1.5434526 -13.128,1.5267448 -2.66328,-0.00496 -4.93524,-0.026654 -5.0488,-0.048247 z m 13.32403,-6.8516424 c 0.6573,-0.238641 1.31246,-0.93178 1.50422,-1.59142 0.31765,-1.092668 0.12185,-1.865296 -0.55841,-2.203482 -0.27462,-0.13653 -0.53832,-0.163447 -1.60112,-0.163447 h -1.27236 l -0.10999,0.484233 c -0.0605,0.266326 -0.27041,1.18247 -0.46648,2.035875 -0.19607,0.853405 -0.35649,1.580948 -0.35649,1.616762 0,0.03582 0.54476,0.0462 1.21058,0.02306 0.86089,-0.02992 1.33753,-0.08813 1.65005,-0.201598 z m 1.51583,-10.563485 c 0.74252,-0.310173 1.14838,-1.01065 1.05287,-1.817149 -0.0655,-0.553051 -0.28716,-0.813351 -0.84177,-0.988518 -0.63171,-0.199522 -1.40956,-0.266603 -1.4628,-0.126152 -0.0243,0.06404 -0.19608,0.789951 -0.38178,1.613148 -0.27916,1.237498 -0.31595,1.504986 -0.21239,1.544448 0.20892,0.07961 1.48987,-0.07707 1.84587,-0.225777 z"
           id="path6" />
        <path
           style="fill:#ffffff;fill-opacity:1;stroke-width:1.31684"
           d="m 1016.7758,-7.9237645 c -0.8996,-0.1356323 -2.4808,-0.6012976 -3.1883,-0.9389607 -3.703,-1.7672788 -5.4333,-5.8096728 -4.688,-10.9522958 0.4512,-3.113083 1.4168,-5.955494 2.7583,-8.119292 2.5744,-4.152626 6.1541,-6.675207 10.8006,-7.611066 0.8776,-0.176755 1.2716,-0.203279 3.0336,-0.204217 1.277,-6.66e-4 2.2436,0.04037 2.6169,0.111131 5.1278,0.97216 7.9115,4.3805 7.926,9.704505 0.017,6.20516 -3.0948,12.36224 -7.8127,15.459018 -2.1349,1.4013047 -4.1363,2.1641097 -6.6624,2.5391948 -1.1088,0.1646488 -3.7279,0.1712075 -4.784,0.011979 z m 5.2094,-6.9584475 c 1.0583,-0.494865 2.2501,-1.756971 3.0368,-3.215986 1.002,-1.858248 1.6598,-4.566545 1.6572,-6.823278 0,-2.133769 -0.4952,-3.322408 -1.6121,-3.8884 -1.2462,-0.631479 -3.0296,0.190254 -4.3874,2.021493 -1.5215,2.05198 -2.5427,5.38891 -2.5377,8.291687 0,1.50852 0.2916,2.471719 0.9741,3.247152 0.7131,0.810143 1.6623,0.931663 2.8691,0.367332 z"
           id="path7" />
        <path
           style="fill:#ffffff;fill-opacity:1;stroke-width:1.31684"
           d="m 1161.8695,-7.8029367 c -2.4778,-0.1685687 -5.5346,-0.9458587 -7.7338,-1.966598 -0.8125,-0.3770753 -0.8503,-0.4070303 -0.8503,-0.6729203 0,-0.445557 1.5145,-7.00724 1.6464,-7.133033 0.057,-0.0541 2.2678,-0.132121 2.6317,-0.09287 0.053,0.0057 0.1464,0.178751 0.2079,0.384549 0.1863,0.623429 0.4247,1.011572 0.9195,1.496524 1.1961,1.17243 3.1477,1.917133 5.0149,1.913586 2.219,-0.0042 3.7544,-0.938601 3.7544,-2.284745 0,-0.294065 -0.058,-0.412797 -0.3368,-0.691758 -0.4227,-0.422743 -1.1538,-0.717889 -4.2854,-1.730047 -1.3075,-0.422566 -2.6941,-0.930372 -3.0815,-1.128453 -1.4226,-0.72739 -2.494,-2.165734 -2.8146,-3.778377 -0.1687,-0.848816 -0.169,-1.375752 0,-2.490909 0.346,-2.305026 1.2576,-4.142484 2.8985,-5.84206 1.6772,-1.737221 3.8561,-2.819667 7.0492,-3.501818 0.9107,-0.194551 1.3482,-0.232036 3.1695,-0.271554 1.8691,-0.04056 2.2706,-0.02336 3.4777,0.149009 2.1551,0.307721 4.064,0.848946 5.7448,1.628788 0.2784,0.129187 0.5062,0.267754 0.5062,0.307925 0,0.109095 -0.5644,2.609444 -1.0737,4.75638 -0.247,1.041101 -0.4745,2.011767 -0.5056,2.157035 l -0.057,0.264127 -1.372,0.02419 -1.3721,0.02419 -0.1977,-0.487224 c -0.5803,-1.429536 -2.952,-2.510312 -5.5093,-2.510498 -1.6843,-1.27e-4 -2.667,0.461456 -3.0784,1.446047 -0.1893,0.453187 -0.1105,0.829264 0.246,1.174191 0.4171,0.403536 1.0598,0.655015 3.3333,1.304359 2.9909,0.854267 3.8056,1.195308 5.0174,2.10046 1.0081,0.752969 1.6478,1.711755 1.9728,2.956688 0.194,0.742996 0.1379,2.224462 -0.1208,3.192858 -0.2246,0.840558 -1.0693,2.607274 -1.6719,3.49685 -0.5455,0.805215 -1.4398,1.808092 -2.2387,2.510415 -2.641,2.3219608 -6.9789,3.5879363 -11.2894,3.2946897 z"
           id="path8" />
        <path
           style="fill:#ffffff;fill-opacity:1;stroke-width:1.31684"
           d="m 1093.6807,-7.7714578 c -0.8405,-0.066838 -2.4195,-0.3928643 -3.2382,-0.6686244 -1.1433,-0.3851112 -2.0389,-0.9264789 -2.7902,-1.6865318 -1.0247,-1.036619 -1.5161,-2.072452 -1.7643,-3.71902 -0.2969,-1.970251 -0.2818,-2.062356 2.0148,-12.264395 0.4088,-1.815872 0.9419,-4.153395 1.1846,-5.194496 0.2428,-1.041101 0.5295,-2.289097 0.6371,-2.77333 0.1077,-0.484234 0.2311,-0.949759 0.2742,-1.034499 0.073,-0.143732 0.3833,-0.154074 4.619,-0.154074 4.2883,0 4.5372,0.0086 4.4809,0.154074 -0.065,0.168795 -0.2359,0.91225 -0.7023,3.059469 -0.1682,0.774774 -0.5479,2.458581 -0.8436,3.7418 -1,4.339684 -2.1209,9.284016 -2.2925,10.112544 -0.2403,1.159885 -0.2296,2.23566 0.027,2.744274 0.7446,1.473969 2.9872,1.139983 4.1117,-0.612338 0.5284,-0.823381 0.8421,-2.039366 3.0006,-11.628185 1.1996,-5.329287 1.3244,-5.87688 1.5261,-6.699359 l 0.2031,-0.828258 4.4825,-0.04402 c 2.4654,-0.02422 4.5165,-0.018 4.558,0.01381 0.067,0.05153 0.023,0.291064 -0.2972,1.614973 -0.096,0.397034 -0.9947,4.362397 -1.666,7.351532 -1.6671,7.423308 -1.8323,8.114237 -2.2531,9.421927 -1.3103,4.071484 -3.8391,6.807602 -7.4808,8.0940252 -2.3299,0.823041 -5.2668,1.1994771 -7.7917,0.998704 z"
           id="path9" />
      </g>
    </g>
  </g>
</svg>
